HIERARCHY
ROOT Hips
{
	OFFSET 0.00000 0.00000 0.00000
	CHANNELS 6 Xposition Yposition Zposition Zrotation Yrotation Xrotation 
	JOINT LHipJoint
	{
		OFFSET 0 0 0
		CHANNELS 3 Zrotation Yrotation Xrotation
		JOINT LeftUpLeg
		{
			OFFSET 1.62964 -1.40469 0.78906
			CHANNELS 3 Zrotation Yrotation Xrotation
			JOINT LeftLeg
			{
				OFFSET 2.29640 -6.30932 0.00000
				CHANNELS 3 Zrotation Yrotation Xrotation
				JOINT LeftFoot
				{
					OFFSET 2.29451 -6.30412 0.00000
					CHANNELS 3 Zrotation Yrotation Xrotation
					JOINT LeftToeBase
					{
						OFFSET 0.03611 -0.09921 1.56387
						CHANNELS 3 Zrotation Yrotation Xrotation
						End Site
						{
							OFFSET 0.00000 -0.00000 0.80291
						}
					}
				}
			}
		}
	}
	JOINT RHipJoint
	{
		OFFSET 0 0 0
		CHANNELS 3 Zrotation Yrotation Xrotation
		JOINT RightUpLeg
		{
			OFFSET -1.73712 -1.40469 0.78906
			CHANNELS 3 Zrotation Yrotation Xrotation
			JOINT RightLeg
			{
				OFFSET -2.28137 -6.26801 0.00000
				CHANNELS 3 Zrotation Yrotation Xrotation
				JOINT RightFoot
				{
					OFFSET -2.28681 -6.28298 0.00000
					CHANNELS 3 Zrotation Yrotation Xrotation
					JOINT RightToeBase
					{
						OFFSET -0.15927 -0.43759 1.61103
						CHANNELS 3 Zrotation Yrotation Xrotation
						End Site
						{
							OFFSET -0.00000 -0.00000 0.84630
						}
					}
				}
			}
		}
	}
	JOINT LowerBack
	{
		OFFSET 0 0 0
		CHANNELS 3 Zrotation Yrotation Xrotation
		JOINT Spine
		{
			OFFSET -0.04227 2.04338 -0.00225
			CHANNELS 3 Zrotation Yrotation Xrotation
			JOINT Spine1
			{
				OFFSET -0.02148 2.04482 -0.04273
				CHANNELS 3 Zrotation Yrotation Xrotation
				JOINT Neck
				{
					OFFSET 0 0 0
					CHANNELS 3 Zrotation Yrotation Xrotation
					JOINT Neck1
					{
						OFFSET 0.09180 1.44629 0.19359
						CHANNELS 3 Zrotation Yrotation Xrotation
						JOINT Head
						{
							OFFSET 0.00887 1.40645 0.14750
							CHANNELS 3 Zrotation Yrotation Xrotation
							End Site
							{
								OFFSET -0.00669 1.50671 0.03707
							}
						}
					}
				}
				JOINT LeftShoulder
				{
					OFFSET 0 0 0
					CHANNELS 3 Zrotation Yrotation Xrotation
					JOINT LeftArm
					{
						OFFSET 2.17674 1.86763 -0.06520
						CHANNELS 3 Zrotation Yrotation Xrotation
						JOINT LeftForeArm
						{
							OFFSET 4.65776 -0.00000 0.00000
							CHANNELS 3 Zrotation Yrotation Xrotation
							JOINT LeftHand
							{
								OFFSET 3.55539 -0.00000 0.00000
								CHANNELS 3 Zrotation Yrotation Xrotation
								JOINT LeftFingerBase
								{
									OFFSET 0 0 0
									CHANNELS 3 Zrotation Yrotation Xrotation
									JOINT LeftHandIndex1
									{
										OFFSET 0.70726 -0.00000 0.00000
										CHANNELS 3 Zrotation Yrotation Xrotation
										End Site
										{
											OFFSET 0.57022 -0.00000 0.00000
										}
									}
								}
								JOINT LThumb
								{
									OFFSET 0 0 0
									CHANNELS 3 Zrotation Yrotation Xrotation
									End Site
									{
										OFFSET 0.57892 -0.00000 0.57892
									}
								}
							}
						}
					}
				}
				JOINT RightShoulder
				{
					OFFSET 0 0 0
					CHANNELS 3 Zrotation Yrotation Xrotation
					JOINT RightArm
					{
						OFFSET -2.80694 1.55459 -0.32496
						CHANNELS 3 Zrotation Yrotation Xrotation
						JOINT RightForeArm
						{
							OFFSET -4.71925 -0.00000 -0.00000
							CHANNELS 3 Zrotation Yrotation Xrotation
							JOINT RightHand
							{
								OFFSET -3.56990 -0.00000 0.00000
								CHANNELS 3 Zrotation Yrotation Xrotation
								JOINT RightFingerBase
								{
									OFFSET 0 0 0
									CHANNELS 3 Zrotation Yrotation Xrotation
									JOINT RightHandIndex1
									{
										OFFSET -0.50776 -0.00000 0.00000
										CHANNELS 3 Zrotation Yrotation Xrotation
										End Site
										{
											OFFSET -0.40937 -0.00000 0.00000
										}
									}
								}
								JOINT RThumb
								{
									OFFSET 0 0 0
									CHANNELS 3 Zrotation Yrotation Xrotation
									End Site
									{
										OFFSET -0.41562 -0.00000 0.41562
									}
								}
							}
						}
					}
				}
			}
		}
	}
}
MOTION
Frames: 12
Frame Time: .0083333
9.3057 16.3779 8.7653 0 0 0 0 0 0 -21 0 0 0 0 0 0 0 0 0 0 0 0 0 0 21 0 0 0 0 0 0 0 0 0 0 0 0 0 0 0 0 0 0 0 0 0 0 -16 0 0 21 0 0 11 0 0 0 -8 0 0 0 0 0 0 0 0 0 0 0 0 0 0 0 0 0 0 0 0 8 0 0 0 0 0 0 0 0 0 0 0 0 0 0 0 0 0
9.3057 16.3779 8.7653 179.1470 -0.5476 -152.9330 0.0000 0.0000 0.0000 -15.6830 -19.1340 -22.2772 0.2642 3.3070 9.1345 0.1963 2.1271 -9.4319 5.1267 -13.5251 -41.3674 0.0000 0.0000 0.0000 13.6593 18.0565 -21.7930 -0.2609 -3.2862 9.0767 -1.2355 -1.2361 -21.4841 -2.2113 9.2929 -26.7160 -6.6532 -1.1610 -28.2486 -0.6717 -0.0782 -2.2717 2.9671 -0.7103 13.1544 -4.0436 0.1189 0.1907 6.8960 -0.6823 8.8337 2.9662 -0.4386 2.8648 -0.0000 0.0000 0.0000 -85.6628 -2.5730 18.7054 8.7793 -14.8080 -1.1431 -0.0000 -0.0000 12.5141 23.4266 -10.7413 -4.6169 -7.1250 0.0000 -0.0000 -2.5693 18.3058 1.6339 -0.0000 0.0000 0.0000 92.3682 -1.9194 8.2534 -14.5405 23.5022 -3.0403 0.0000 0.0000 4.9183 -17.3383 -49.3889 13.3333 7.1250 -0.0000 -0.0000 50.0347 -76.3302 -38.6092
9.3053 16.3778 8.7653 179.1340 -0.5709 -152.9510 0.0000 0.0000 0.0000 -15.7116 -19.1386 -22.2571 0.2638 3.3045 9.1276 0.1977 2.1010 -9.4450 5.1115 -13.5082 -41.3020 0.0000 0.0000 0.0000 13.6897 17.9122 -21.7466 -0.2551 -3.2499 8.9753 -1.2345 -1.1971 -21.4606 -2.3293 9.5207 -27.4382 -6.6570 -1.1658 -28.2004 -0.6715 -0.0878 -2.2831 2.9661 -0.7135 13.1163 -4.0706 0.1228 0.1436 6.8916 -0.6736 8.8485 2.9706 -0.4337 2.8783 0.0000 -0.0000 0.0000 -85.6465 -2.5652 18.7844 8.7883 -14.8224 -1.1454 -0.0000 -0.0000 12.4354 23.4693 -10.5698 -4.5536 -7.1250 0.0000 -0.0000 -2.5319 18.4875 1.6000 0.0000 -0.0000 0.0000 92.3669 -1.9200 8.2563 -14.5804 23.5584 -3.0563 0.0000 0.0000 4.8859 -17.5253 -49.9160 13.5828 7.1250 -0.0000 -0.0000 51.8277 -76.6753 -40.4492
9.3051 16.3785 8.7642 179.0940 -0.5855 -152.9620 0.0000 0.0000 0.0000 -15.7766 -19.1107 -22.2450 0.2641 3.3062 9.1324 0.1987 2.0498 -9.4324 5.1158 -13.5131 -41.3208 0.0000 0.0000 0.0000 13.6592 17.8893 -21.7450 -0.2579 -3.2675 9.0245 -1.2451 -1.0824 -21.5045 -2.3512 9.5623 -27.5705 -6.6847 -1.1639 -28.1786 -0.6944 -0.0791 -2.2996 2.9589 -0.7103 13.0839 -4.0672 0.1200 0.1412 6.8908 -0.6773 8.8496 2.9697 -0.4353 2.8793 -0.0000 -0.0000 0.0000 -85.6028 -2.5008 19.0060 8.8185 -14.8707 -1.1531 -0.0000 -0.0000 12.2377 23.5058 -10.4627 -4.5159 -7.1250 0.0000 -0.0000 -2.5018 18.6003 1.5747 -0.0000 -0.0000 0.0000 92.3946 -1.9393 8.2430 -14.6116 23.6022 -3.0687 0.0000 0.0000 4.8522 -17.7711 -50.3866 13.8694 7.1250 -0.0000 -0.0000 53.4583 -77.0016 -42.1568
9.3053 16.3793 8.7645 179.0620 -0.5890 -152.9670 0.0000 0.0000 0.0000 -15.8290 -19.0831 -22.2190 0.2618 3.2917 9.0919 0.1959 2.0117 -9.3505 5.1671 -13.5695 -41.5395 0.0000 0.0000 0.0000 13.6164 17.8810 -21.7012 -0.2531 -3.2371 8.9396 -1.2353 -1.0631 -21.4139 -2.2793 9.4251 -27.1342 -6.7110 -1.1642 -28.1634 -0.7196 -0.0721 -2.3102 2.9475 -0.7078 13.0624 -4.0716 0.1208 0.1379 6.8872 -0.6751 8.8480 2.9693 -0.4342 2.8793 -0.0000 -0.0000 0.0000 -85.5713 -2.4615 19.0749 8.8209 -14.8746 -1.1537 -0.0000 -0.0000 12.2365 23.4905 -10.5945 -4.5686 -7.1250 0.0000 -0.0000 -2.5181 18.4590 1.5928 -0.0000 -0.0000 0.0000 92.4462 -1.9493 8.1938 -14.6472 23.6523 -3.0830 0.0000 0.0000 4.9101 -17.4045 -49.9151 13.4866 7.1250 -0.0000 -0.0000 51.9146 -76.6267 -40.4779
9.3050 16.3784 8.7655 179.0690 -0.6038 -152.9430 0.0000 0.0000 0.0000 -15.8080 -19.1163 -22.2100 0.2575 3.2651 9.0176 0.1920 2.0558 -9.2970 5.2543 -13.6646 -41.9102 0.0000 0.0000 0.0000 13.6167 17.8783 -21.7353 -0.2541 -3.2434 8.9571 -1.2325 -1.1886 -21.4397 -2.3053 9.4749 -27.2925 -6.6948 -1.1635 -28.1627 -0.7193 -0.0800 -2.3273 2.9355 -0.7107 13.0426 -4.0795 0.1206 0.1177 6.8873 -0.6735 8.8487 2.9711 -0.4329 2.8833 0.0000 -0.0000 0.0000 -85.5823 -2.4442 19.0826 8.8093 -14.8560 -1.1507 -0.0000 -0.0000 12.3053 23.5705 -10.7862 -4.6676 -7.1250 0.0000 -0.0000 -2.4697 18.2444 1.5738 0.0000 -0.0000 0.0000 92.4608 -1.9577 8.1807 -14.6846 23.7049 -3.0980 0.0000 0.0000 4.9633 -17.0737 -49.2061 13.0900 7.1250 -0.0000 -0.0000 49.5989 -76.1280 -38.0580
9.3055 16.3770 8.7662 179.1140 -0.6324 -152.8910 0.0000 0.0000 0.0000 -15.7242 -19.1281 -22.2966 0.2581 3.2689 9.0283 0.1928 2.0687 -9.3225 5.2886 -13.7016 -42.0549 0.0000 0.0000 0.0000 13.6738 17.8336 -21.7945 -0.2523 -3.2320 8.9252 -1.2305 -1.2617 -21.4523 -2.3932 9.6410 -27.8219 -6.6539 -1.1605 -28.2082 -0.6958 -0.0912 -2.3393 2.9345 -0.7153 13.0537 -4.0809 0.1225 0.1252 6.8912 -0.6716 8.8464 2.9726 -0.4321 2.8810 0.0000 0.0000 0.0000 -85.6151 -2.4207 19.1556 8.8465 -14.9154 -1.1603 -0.0000 -0.0000 12.2551 23.6109 -10.6853 -4.6336 -7.1250 0.0000 -0.0000 -2.4370 18.3499 1.5472 0.0000 0.0000 0.0000 92.4194 -1.9817 8.2807 -14.7062 23.7353 -3.1067 0.0000 0.0000 4.8822 -17.0448 -48.9127 13.0113 7.1250 -0.0000 -0.0000 48.6031 -75.9565 -37.0710
9.3062 16.3774 8.7659 179.1570 -0.6696 -152.8700 0.0000 0.0000 0.0000 -15.6575 -19.1140 -22.3444 0.2602 3.2817 9.0641 0.1957 2.0166 -9.3503 5.1998 -13.6053 -41.6787 0.0000 0.0000 0.0000 13.7250 17.8720 -21.7965 -0.2511 -3.2244 8.9040 -1.2312 -1.2469 -21.4525 -2.3408 9.5425 -27.5076 -6.5962 -1.1597 -28.2365 -0.6919 -0.1066 -2.3381 2.8997 -0.7197 13.0720 -4.0708 0.1218 0.1125 6.8930 -0.6723 8.8459 2.9714 -0.4318 2.8832 0.0000 -0.0000 0.0000 -85.6128 -2.4057 19.2100 8.8973 -14.9965 -1.1734 -0.0000 -0.0000 12.1965 23.5412 -10.6435 -4.6005 -7.1250 0.0000 -0.0000 -2.4843 18.4014 1.5745 0.0000 -0.0000 0.0000 92.4161 -1.9521 8.3421 -14.6902 23.7128 -3.1003 0.0000 0.0000 4.8306 -16.9177 -48.8354 12.8972 7.1250 -0.0000 -0.0000 48.4468 -75.8638 -36.8574
9.3059 16.3778 8.7640 179.1860 -0.6875 -152.9010 0.0000 0.0000 0.0000 -15.6311 -19.1240 -22.2733 0.2588 3.2732 9.0404 0.1973 2.0040 -9.3754 5.0965 -13.4917 -41.2381 0.0000 0.0000 0.0000 13.7694 17.8478 -21.7604 -0.2502 -3.2187 8.8883 -1.2336 -1.1164 -21.4207 -2.2250 9.3198 -26.8010 -6.5426 -1.1487 -28.2433 -0.7025 -0.1038 -2.3230 2.8575 -0.7149 13.0935 -4.0739 0.1186 0.0864 6.8988 -0.6748 8.8424 2.9741 -0.4320 2.8872 -0.0000 0.0000 0.0000 -85.5943 -2.4347 19.3002 8.8986 -14.9987 -1.1737 -0.0000 -0.0000 12.1764 23.5810 -10.5997 -4.5905 -7.1250 0.0000 -0.0000 -2.4544 18.4453 1.5532 -0.0000 0.0000 0.0000 92.4270 -1.8884 8.3165 -14.6698 23.6842 -3.0921 0.0000 0.0000 4.8553 -16.7357 -48.6080 12.7121 7.1250 -0.0000 -0.0000 47.8381 -75.6647 -36.1747
9.3056 16.3780 8.7632 179.1920 -0.6703 -152.9240 0.0000 0.0000 0.0000 -15.6291 -19.1646 -22.1886 0.2554 3.2518 8.9807 0.2000 2.0238 -9.4420 4.9378 -13.3134 -40.5531 0.0000 0.0000 0.0000 13.7946 17.7604 -21.8011 -0.2541 -3.2436 8.9576 -1.2352 -1.0922 -21.4247 -2.3035 9.4716 -27.2821 -6.5427 -1.1308 -28.2338 -0.7010 -0.0809 -2.3231 2.8683 -0.7041 13.0860 -4.0884 0.1183 0.0913 6.9041 -0.6747 8.8366 2.9786 -0.4322 2.8845 0.0000 0.0000 0.0000 -85.5900 -2.4380 19.4904 8.9093 -15.0157 -1.1765 -0.0000 -0.0000 12.0448 23.6252 -10.7527 -4.6655 -7.1250 0.0000 -0.0000 -2.4297 18.2756 1.5466 0.0000 0.0000 0.0000 92.3831 -1.8561 8.3868 -14.6480 23.6535 -3.0833 0.0000 0.0000 4.7765 -16.8068 -48.5163 12.7500 7.1250 -0.0000 -0.0000 47.4725 -75.6401 -35.8516
9.3054 16.3784 8.7648 179.2200 -0.6372 -152.9090 0.0000 0.0000 0.0000 -15.5875 -19.1929 -22.1735 0.2527 3.2343 8.9316 0.1975 2.1049 -9.4433 4.8295 -13.1892 -40.0809 0.0000 0.0000 0.0000 13.8181 17.8143 -21.8400 -0.2574 -3.2645 9.0160 -1.2323 -1.1535 -21.4245 -2.4282 9.7061 -28.0301 -6.5357 -1.1092 -28.2188 -0.6873 -0.0614 -2.3437 2.8878 -0.6950 13.0517 -4.1009 0.1233 0.0989 6.9019 -0.6674 8.8365 2.9803 -0.4292 2.8827 -0.0000 -0.0000 0.0000 -85.6000 -2.4152 19.5977 8.9421 -15.0681 -1.1850 -0.0000 -0.0000 11.9204 23.5702 -11.0177 -4.7661 -7.1250 0.0000 -0.0000 -2.4800 17.9938 1.5941 -0.0000 -0.0000 0.0000 92.3276 -1.7555 8.4488 -14.5620 23.5324 -3.0489 0.0000 0.0000 4.7249 -16.9126 -48.5147 12.8320 7.1250 -0.0000 -0.0000 47.3746 -75.6805 -35.8071
9.3053 16.3786 8.7658 179.2430 -0.6151 -152.9030 0.0000 0.0000 0.0000 -15.5573 -19.1796 -22.1965 0.2539 3.2418 8.9528 0.1930 2.1800 -9.3977 4.9470 -13.3239 -40.5934 0.0000 0.0000 0.0000 13.8237 17.9274 -21.8197 -0.2573 -3.2636 9.0134 -1.2309 -1.1030 -21.3926 -2.3766 9.6100 -27.7227 -6.5223 -1.0964 -28.2110 -0.6853 -0.0512 -2.3524 2.8864 -0.6895 13.0361 -4.1011 0.1249 0.0960 6.8974 -0.6650 8.8404 2.9789 -0.4280 2.8843 -0.0000 0.0000 0.0000 -85.5978 -2.4331 19.6346 8.9484 -15.0782 -1.1867 -0.0000 -0.0000 11.8546 23.5642 -11.0332 -4.7713 -7.1250 0.0000 -0.0000 -2.4850 17.9776 1.5982 -0.0000 0.0000 0.0000 92.3156 -1.6290 8.4328 -14.4960 23.4394 -3.0226 0.0000 0.0000 4.7282 -16.8570 -48.5196 12.7897 7.1250 -0.0000 -0.0000 47.4395 -75.6616 -35.8436
